<?xml version="1.0" encoding="UTF-8"?>
<svg version="1.1" xmlns="http://www.w3.org/2000/svg" xmlns:xlink="http://www.w3.org/1999/xlink" width="236.087px" height="300px" viewBox="-463.835 301.995 236.087 300" xml:space="preserve">
  <!-- Solid body -->
  <path fill="#000000" d="M-346.006,335.012c-79.571,0.165-82.928,99.419-82.911,117.663c0.119,55.307,22.641,116.438,83.354,116.303  c60.715-0.125,82.976-61.711,82.874-117.018C-262.723,433.744-266.417,334.869-346.006,335.012"/>
  <!-- Details -->
  <path fill="#000000" d="M-307.54,425.433c-6.778-10.783-16.27-23.52-17.343-36.636c-0.663-8.236-0.169-17.449-5.724-24.234  c-1.6-1.98-3.88-3.813-6.148-5.003c-2.406-1.237-5.52-2.05-8.246-2.05c-2.587,0-5.16,0.404-7.63,1.141  c-2.914,0.886-5.81,1.929-8.825,2.36c-3.508,0.476-6.336,0.308-9.76-0.454c-2.028-0.453-2.589-0.618-4.635-1.067  c-1.106-0.236-4.19-1.123-5.145-0.169c-2.301,2.309,2.589,5.095,4.039,6.143c3.185,2.31,4.529,3.071,7.562,5.714  c4.107,3.575,7.377,7.806,8.637,13.138c0.358,1.556,0.477,3.099,0.494,4.669c0.306,22.998-38.058,45.55-37.527,86.26  c0.188,14.38,7.869,16.764,7.767,8.758c-0.119-9.473,3.253-19.713,6.728-28.495c0.82-2.026,3.393-2.644,2.811,0.878  c-0.919,5.572-3.185,15.217-2.981,30.953c0.052,3.784,0.272,7.619,0.82,11.351c0.443,3.054,1.089,6.049,1.991,8.982  c0.734,2.45,1.688,4.856,2.896,7.119c0.956,1.782,2.062,3.494,3.355,5.044c1.296,1.524,2.675,2.644,4.226,3.856  c0.902,0.714,1.909,1.356,2.334,2.479c0.647,1.668-1.467,2.331-2.572,2.831c-1.229,0.551-2.301,1.163-3.458,1.713  c-1.671,0.811-3.304,1.667-4.924,2.57c-0.987,0.572-2.097,0.907-3.05,1.55c-0.953,0.641-1.432,1.643,0.035,1.882  c0.68,0.119,1.413-0.075,2.095-0.097c1.158-0.045,2.383-0.215,3.509,0.216c1.498,0.59,1.413,2.043,1.481,3.449  c0.067,1.498,1.126,2.002,2.454,1.622c1.568-0.433,2.658-1.622,3.869-2.644c0.867-0.736,1.821-1.497,2.859-2.024  c2.062-1.027,4.533-0.687,6.765-0.574c1.225,0.075,2.981,0.597,3.985-0.425c1.021-1.004,0.289-2.785-0.153-3.908  c-0.443-1.065-0.97-2.116-1.498-3.166c-0.239-0.478-0.582-0.879-0.803-1.379c-0.868-2.002,6.115-3.523,7.139-3.784  c3.373-0.905,6.916-1.712,10.427-2.025c3.302-0.288,6.966-0.288,10.098,1.027c1.327,0.545,2.439,1.497,3.341,2.615  c0.494,0.642,1.651,2.525,0.612,3.285c-1.604,1.167-3.25,2.189-4.838,3.427c-0.988,0.766-1.941,1.577-2.78,2.529  c-0.625,0.715-0.795,1.953,0.482,1.879c1.702-0.075,3.386-0.165,5.077-0.188c1.208,0,2.502,0.164,3.523,0.851  c1.673,1.146,2.047,3.552,3.902,4.481c0.528,0.261,1.158,0.261,1.719,0.091c1.248-0.381,1.804-1.646,2.45-2.644  c0.614-0.902,1.232-1.781,2.202-2.303c0.595-0.341,1.294-0.477,1.974-0.477c1.249,0,2.484,0.022,3.732,0.164  c0.971,0.119,2.303,0.572,3.167-0.097c1.639-1.259-2.673-4.097-3.524-4.617c-1.979-1.236-4.771-2.525-5.4-5.049  c-0.715-2.974,0.766-6.047,1.991-8.669c1.316-2.758,3.104-5.311,4.125-8.215c0.936-2.666,1.65-5.445,2.048-8.26  c2.156-15.401-1.401-31.757-5.911-46.473c-0.533-1.759-1.231-3.502-1.742-5.259c-0.766-2.763,1.912-3.428,3.284-0.715  c1.316,2.598,9.939,19.142,12.458,31.473c1.582,7.835,7.493,8.141,7.324-5.787C-290.589,454.881-298.225,440.29-307.54,425.433"/>
</svg>